<svg xmlns="http://www.w3.org/2000/svg" xmlns:xlink="http://www.w3.org/1999/xlink" width="2000" zoomAndPan="magnify" viewBox="0 0 1500 1499.999933" height="2000" preserveAspectRatio="xMidYMid meet" version="1.0"><defs><g/><clipPath id="9065d2725b"><rect x="0" width="1049" y="0" height="286"/></clipPath><clipPath id="e8d58f1fb0"><path d="M 0.800781 0.441406 L 359.839844 0.441406 L 359.839844 596.839844 L 0.800781 596.839844 Z M 0.800781 0.441406 " clip-rule="nonzero"/></clipPath><clipPath id="b4c752e944"><rect x="0" width="360" y="0" height="597"/></clipPath><clipPath id="1e053e096b"><path d="M 233.746094 240.554688 L 359.183594 240.554688 L 359.183594 365.992188 L 233.746094 365.992188 Z M 233.746094 240.554688 " clip-rule="nonzero"/></clipPath><clipPath id="6008323b03"><path d="M 296.464844 240.554688 L 315.476562 284.261719 L 359.183594 303.273438 L 315.476562 322.285156 L 296.464844 365.992188 L 277.453125 322.285156 L 233.746094 303.273438 L 277.453125 284.261719 Z M 296.464844 240.554688 " clip-rule="nonzero"/></clipPath><clipPath id="8cd280f0a6"><path d="M 0.746094 0.554688 L 126.183594 0.554688 L 126.183594 125.992188 L 0.746094 125.992188 Z M 0.746094 0.554688 " clip-rule="nonzero"/></clipPath><clipPath id="8ad8fc6e2a"><path d="M 63.464844 0.554688 L 82.476562 44.261719 L 126.183594 63.273438 L 82.476562 82.285156 L 63.464844 125.992188 L 44.453125 82.285156 L 0.746094 63.273438 L 44.453125 44.261719 Z M 63.464844 0.554688 " clip-rule="nonzero"/></clipPath><clipPath id="3a4f7a724a"><rect x="0" width="127" y="0" height="126"/></clipPath><clipPath id="6f46a39315"><rect x="0" width="360" y="0" height="597"/></clipPath></defs><rect x="-150" width="1800" fill="#ffffff" y="-149.999993" height="1799.99992" fill-opacity="1"/><rect x="-150" width="1800" fill="#ffffff" y="-149.999993" height="1799.99992" fill-opacity="1"/><g transform="matrix(1, 0, 0, 1, 409, 607)"><g clip-path="url(#9065d2725b)"><g fill="#6d94c5" fill-opacity="1"><g transform="translate(0.906756, 213.089253)"><g><path d="M 6.703125 -71.515625 C 6.703125 -85.597656 9.75 -98.15625 15.84375 -109.1875 C 21.9375 -120.226562 30.4375 -128.828125 41.34375 -134.984375 C 52.25 -141.148438 64.609375 -144.234375 78.421875 -144.234375 C 95.347656 -144.234375 109.835938 -139.765625 121.890625 -130.828125 C 133.941406 -121.890625 142 -109.703125 146.0625 -94.265625 L 107.875 -94.265625 C 105.03125 -100.222656 101 -104.757812 95.78125 -107.875 C 90.570312 -110.988281 84.648438 -112.546875 78.015625 -112.546875 C 67.316406 -112.546875 58.644531 -108.820312 52 -101.375 C 45.363281 -93.925781 42.046875 -83.972656 42.046875 -71.515625 C 42.046875 -59.054688 45.363281 -49.097656 52 -41.640625 C 58.644531 -34.191406 67.316406 -30.46875 78.015625 -30.46875 C 84.648438 -30.46875 90.570312 -32.023438 95.78125 -35.140625 C 101 -38.253906 105.03125 -42.789062 107.875 -48.75 L 146.0625 -48.75 C 142 -33.3125 133.941406 -21.15625 121.890625 -12.28125 C 109.835938 -3.414062 95.347656 1.015625 78.421875 1.015625 C 64.609375 1.015625 52.25 -2.0625 41.34375 -8.21875 C 30.4375 -14.382812 21.9375 -22.953125 15.84375 -33.921875 C 9.75 -44.890625 6.703125 -57.421875 6.703125 -71.515625 Z M 6.703125 -71.515625 "/></g></g></g><g fill="#6d94c5" fill-opacity="1"><g transform="translate(153.878259, 213.089253)"><g><path d="M 64.203125 1.625 C 53.085938 1.625 43.09375 -0.742188 34.21875 -5.484375 C 25.351562 -10.222656 18.378906 -16.992188 13.296875 -25.796875 C 8.222656 -34.597656 5.6875 -44.894531 5.6875 -56.6875 C 5.6875 -68.332031 8.257812 -78.585938 13.40625 -87.453125 C 18.550781 -96.328125 25.59375 -103.132812 34.53125 -107.875 C 43.46875 -112.613281 53.492188 -114.984375 64.609375 -114.984375 C 75.710938 -114.984375 85.734375 -112.613281 94.671875 -107.875 C 103.609375 -103.132812 110.648438 -96.328125 115.796875 -87.453125 C 120.941406 -78.585938 123.515625 -68.332031 123.515625 -56.6875 C 123.515625 -45.03125 120.90625 -34.765625 115.6875 -25.890625 C 110.476562 -17.023438 103.367188 -10.222656 94.359375 -5.484375 C 85.359375 -0.742188 75.304688 1.625 64.203125 1.625 Z M 64.203125 -28.4375 C 70.835938 -28.4375 76.488281 -30.875 81.15625 -35.75 C 85.832031 -40.625 88.171875 -47.601562 88.171875 -56.6875 C 88.171875 -65.757812 85.898438 -72.734375 81.359375 -77.609375 C 76.828125 -82.484375 71.242188 -84.921875 64.609375 -84.921875 C 57.835938 -84.921875 52.210938 -82.515625 47.734375 -77.703125 C 43.265625 -72.898438 41.03125 -65.894531 41.03125 -56.6875 C 41.03125 -47.601562 43.234375 -40.625 47.640625 -35.75 C 52.046875 -30.875 57.566406 -28.4375 64.203125 -28.4375 Z M 64.203125 -28.4375 "/></g></g></g><g fill="#6d94c5" fill-opacity="1"><g transform="translate(281.456074, 213.089253)"><g><path d="M 47.328125 -97.3125 C 50.722656 -102.59375 55.398438 -106.859375 61.359375 -110.109375 C 67.316406 -113.359375 74.289062 -114.984375 82.28125 -114.984375 C 91.625 -114.984375 100.085938 -112.613281 107.671875 -107.875 C 115.253906 -103.132812 121.242188 -96.363281 125.640625 -87.5625 C 130.046875 -78.757812 132.25 -68.535156 132.25 -56.890625 C 132.25 -45.234375 130.046875 -34.96875 125.640625 -26.09375 C 121.242188 -17.226562 115.253906 -10.390625 107.671875 -5.578125 C 100.085938 -0.773438 91.625 1.625 82.28125 1.625 C 74.425781 1.625 67.484375 0 61.453125 -3.25 C 55.429688 -6.5 50.722656 -10.695312 47.328125 -15.84375 L 47.328125 54.046875 L 12.59375 54.046875 L 12.59375 -113.359375 L 47.328125 -113.359375 Z M 96.90625 -56.890625 C 96.90625 -65.554688 94.5 -72.359375 89.6875 -77.296875 C 84.882812 -82.242188 78.960938 -84.71875 71.921875 -84.71875 C 65.015625 -84.71875 59.15625 -82.210938 54.34375 -77.203125 C 49.53125 -72.191406 47.125 -65.351562 47.125 -56.6875 C 47.125 -48.007812 49.53125 -41.164062 54.34375 -36.15625 C 59.15625 -31.144531 65.015625 -28.640625 71.921875 -28.640625 C 78.828125 -28.640625 84.71875 -31.175781 89.59375 -36.25 C 94.46875 -41.332031 96.90625 -48.210938 96.90625 -56.890625 Z M 96.90625 -56.890625 "/></g></g></g><g fill="#6d94c5" fill-opacity="1"><g transform="translate(417.566172, 213.089253)"><g><path d="M 5.6875 -56.890625 C 5.6875 -68.535156 7.882812 -78.757812 12.28125 -87.5625 C 16.6875 -96.363281 22.679688 -103.132812 30.265625 -107.875 C 37.847656 -112.613281 46.316406 -114.984375 55.671875 -114.984375 C 63.660156 -114.984375 70.664062 -113.359375 76.6875 -110.109375 C 82.71875 -106.859375 87.359375 -102.59375 90.609375 -97.3125 L 90.609375 -113.359375 L 125.34375 -113.359375 L 125.34375 0 L 90.609375 0 L 90.609375 -16.046875 C 87.222656 -10.765625 82.515625 -6.5 76.484375 -3.25 C 70.460938 0 63.457031 1.625 55.46875 1.625 C 46.25 1.625 37.847656 -0.773438 30.265625 -5.578125 C 22.679688 -10.390625 16.6875 -17.226562 12.28125 -26.09375 C 7.882812 -34.96875 5.6875 -45.234375 5.6875 -56.890625 Z M 90.609375 -56.6875 C 90.609375 -65.351562 88.203125 -72.191406 83.390625 -77.203125 C 78.585938 -82.210938 72.734375 -84.71875 65.828125 -84.71875 C 58.921875 -84.71875 53.0625 -82.242188 48.25 -77.296875 C 43.4375 -72.359375 41.03125 -65.554688 41.03125 -56.890625 C 41.03125 -48.210938 43.4375 -41.332031 48.25 -36.25 C 53.0625 -31.175781 58.921875 -28.640625 65.828125 -28.640625 C 72.734375 -28.640625 78.585938 -31.144531 83.390625 -36.15625 C 88.203125 -41.164062 90.609375 -48.007812 90.609375 -56.6875 Z M 90.609375 -56.6875 "/></g></g></g><g fill="#6d94c5" fill-opacity="1"><g transform="translate(553.676246, 213.089253)"><g><path d="M 58.71875 1.625 C 48.820312 1.625 40.015625 -0.0664062 32.296875 -3.453125 C 24.578125 -6.835938 18.484375 -11.472656 14.015625 -17.359375 C 9.546875 -23.253906 7.039062 -29.859375 6.5 -37.171875 L 40.828125 -37.171875 C 41.234375 -33.242188 43.0625 -30.0625 46.3125 -27.625 C 49.570312 -25.1875 53.570312 -23.96875 58.3125 -23.96875 C 62.644531 -23.96875 65.992188 -24.8125 68.359375 -26.5 C 70.734375 -28.195312 71.921875 -30.398438 71.921875 -33.109375 C 71.921875 -36.359375 70.226562 -38.757812 66.84375 -40.3125 C 63.457031 -41.875 57.96875 -43.601562 50.375 -45.5 C 42.25 -47.394531 35.476562 -49.394531 30.0625 -51.5 C 24.644531 -53.601562 19.972656 -56.921875 16.046875 -61.453125 C 12.117188 -65.992188 10.15625 -72.125 10.15625 -79.84375 C 10.15625 -86.34375 11.945312 -92.265625 15.53125 -97.609375 C 19.125 -102.960938 24.40625 -107.195312 31.375 -110.3125 C 38.351562 -113.425781 46.65625 -114.984375 56.28125 -114.984375 C 70.5 -114.984375 81.703125 -111.460938 89.890625 -104.421875 C 98.085938 -97.378906 102.796875 -88.035156 104.015625 -76.390625 L 71.921875 -76.390625 C 71.378906 -80.316406 69.648438 -83.429688 66.734375 -85.734375 C 63.828125 -88.035156 60.003906 -89.1875 55.265625 -89.1875 C 51.191406 -89.1875 48.070312 -88.40625 45.90625 -86.84375 C 43.738281 -85.289062 42.65625 -83.160156 42.65625 -80.453125 C 42.65625 -77.203125 44.382812 -74.765625 47.84375 -73.140625 C 51.300781 -71.515625 56.6875 -69.890625 64 -68.265625 C 72.394531 -66.097656 79.234375 -63.960938 84.515625 -61.859375 C 89.796875 -59.765625 94.429688 -56.378906 98.421875 -51.703125 C 102.421875 -47.023438 104.488281 -40.757812 104.625 -32.90625 C 104.625 -26.269531 102.757812 -20.34375 99.03125 -15.125 C 95.3125 -9.914062 89.960938 -5.820312 82.984375 -2.84375 C 76.015625 0.132812 67.925781 1.625 58.71875 1.625 Z M 58.71875 1.625 "/></g></g></g><g fill="#6d94c5" fill-opacity="1"><g transform="translate(665.205306, 213.089253)"><g/></g></g><g fill="#6d94c5" fill-opacity="1"><g transform="translate(706.444538, 213.089253)"><g><path d="M 101.375 -25.1875 L 48.140625 -25.1875 L 39.609375 0 L 3.25 0 L 54.859375 -142.609375 L 95.078125 -142.609375 L 146.671875 0 L 109.90625 0 Z M 92.4375 -52.015625 L 74.765625 -104.21875 L 57.296875 -52.015625 Z M 92.4375 -52.015625 "/></g></g></g><g fill="#6d94c5" fill-opacity="1"><g transform="translate(854.337335, 213.089253)"><g><path d="M 29.859375 -125.140625 C 23.765625 -125.140625 18.785156 -126.929688 14.921875 -130.515625 C 11.066406 -134.109375 9.140625 -138.546875 9.140625 -143.828125 C 9.140625 -149.242188 11.066406 -153.75 14.921875 -157.34375 C 18.785156 -160.9375 23.765625 -162.734375 29.859375 -162.734375 C 35.816406 -162.734375 40.722656 -160.9375 44.578125 -157.34375 C 48.441406 -153.75 50.375 -149.242188 50.375 -143.828125 C 50.375 -138.546875 48.441406 -134.109375 44.578125 -130.515625 C 40.722656 -126.929688 35.816406 -125.140625 29.859375 -125.140625 Z M 47.328125 14.625 C 47.328125 28.570312 43.804688 38.628906 36.765625 44.796875 C 29.722656 50.960938 19.90625 54.046875 7.3125 54.046875 L -6.296875 54.046875 L -6.296875 24.578125 L 2.03125 24.578125 C 5.820312 24.578125 8.53125 23.832031 10.15625 22.34375 C 11.78125 20.851562 12.59375 18.414062 12.59375 15.03125 L 12.59375 -113.359375 L 47.328125 -113.359375 Z M 47.328125 14.625 "/></g></g></g><g fill="#6d94c5" fill-opacity="1"><g transform="translate(912.234812, 213.089253)"><g><path d="M 5.6875 -56.890625 C 5.6875 -68.535156 7.882812 -78.757812 12.28125 -87.5625 C 16.6875 -96.363281 22.679688 -103.132812 30.265625 -107.875 C 37.847656 -112.613281 46.316406 -114.984375 55.671875 -114.984375 C 63.660156 -114.984375 70.664062 -113.359375 76.6875 -110.109375 C 82.71875 -106.859375 87.359375 -102.59375 90.609375 -97.3125 L 90.609375 -113.359375 L 125.34375 -113.359375 L 125.34375 0 L 90.609375 0 L 90.609375 -16.046875 C 87.222656 -10.765625 82.515625 -6.5 76.484375 -3.25 C 70.460938 0 63.457031 1.625 55.46875 1.625 C 46.25 1.625 37.847656 -0.773438 30.265625 -5.578125 C 22.679688 -10.390625 16.6875 -17.226562 12.28125 -26.09375 C 7.882812 -34.96875 5.6875 -45.234375 5.6875 -56.890625 Z M 90.609375 -56.6875 C 90.609375 -65.351562 88.203125 -72.191406 83.390625 -77.203125 C 78.585938 -82.210938 72.734375 -84.71875 65.828125 -84.71875 C 58.921875 -84.71875 53.0625 -82.242188 48.25 -77.296875 C 43.4375 -72.359375 41.03125 -65.554688 41.03125 -56.890625 C 41.03125 -48.210938 43.4375 -41.332031 48.25 -36.25 C 53.0625 -31.175781 58.921875 -28.640625 65.828125 -28.640625 C 72.734375 -28.640625 78.585938 -31.144531 83.390625 -36.15625 C 88.203125 -41.164062 90.609375 -48.007812 90.609375 -56.6875 Z M 90.609375 -56.6875 "/></g></g></g></g></g><g transform="matrix(1, 0, 0, 1, 34, 451)"><g clip-path="url(#6f46a39315)"><g clip-path="url(#e8d58f1fb0)"><g transform="matrix(1, 0, 0, 1, 0, 0.000000000000113687)"><g clip-path="url(#b4c752e944)"><g fill="#6d94c5" fill-opacity="1"><g transform="translate(0.996338, 473.981113)"><g><path d="M 204.359375 5.859375 C 169.484375 5.859375 137.945312 -1.710938 109.75 -16.859375 C 81.5625 -32.015625 59.398438 -53.035156 43.265625 -79.921875 C 27.128906 -106.816406 19.0625 -137.210938 19.0625 -171.109375 C 19.0625 -205.015625 27.128906 -235.410156 43.265625 -262.296875 C 59.398438 -289.191406 81.5625 -310.210938 109.75 -325.359375 C 137.945312 -340.515625 169.648438 -348.09375 204.859375 -348.09375 C 234.515625 -348.09375 261.320312 -342.878906 285.28125 -332.453125 C 309.238281 -322.023438 329.363281 -307.035156 345.65625 -287.484375 L 294.8125 -240.546875 C 271.664062 -267.265625 242.984375 -280.625 208.765625 -280.625 C 187.578125 -280.625 168.671875 -275.976562 152.046875 -266.6875 C 135.421875 -257.40625 122.460938 -244.453125 113.171875 -227.828125 C 103.890625 -211.203125 99.25 -192.296875 99.25 -171.109375 C 99.25 -149.929688 103.890625 -131.03125 113.171875 -114.40625 C 122.460938 -97.78125 135.421875 -84.820312 152.046875 -75.53125 C 168.671875 -66.25 187.578125 -61.609375 208.765625 -61.609375 C 242.984375 -61.609375 271.664062 -75.132812 294.8125 -102.1875 L 345.65625 -55.25 C 329.363281 -35.363281 309.15625 -20.207031 285.03125 -9.78125 C 260.914062 0.644531 234.023438 5.859375 204.359375 5.859375 Z M 204.359375 5.859375 "/></g></g></g></g></g></g><g clip-path="url(#1e053e096b)"><g clip-path="url(#6008323b03)"><g transform="matrix(1, 0, 0, 1, 233, 240)"><g clip-path="url(#3a4f7a724a)"><g clip-path="url(#8cd280f0a6)"><g clip-path="url(#8ad8fc6e2a)"><path fill="#6d94c5" d="M 0.746094 0.554688 L 126.183594 0.554688 L 126.183594 125.992188 L 0.746094 125.992188 Z M 0.746094 0.554688 " fill-opacity="1" fill-rule="nonzero"/></g></g></g></g></g></g></g></g></svg>