<svg xmlns="http://www.w3.org/2000/svg" xmlns:xlink="http://www.w3.org/1999/xlink" width="2000" zoomAndPan="magnify" viewBox="0 0 1500 1499.999933" height="2000" preserveAspectRatio="xMidYMid meet" version="1.0"><defs><g/><clipPath id="dc74e41d75"><rect x="0" width="1432" y="0" height="1500"/></clipPath><clipPath id="5700836fe8"><path d="M 963.632812 516.878906 L 1463.96875 516.878906 L 1463.96875 1017.214844 L 963.632812 1017.214844 Z M 963.632812 516.878906 " clip-rule="nonzero"/></clipPath><clipPath id="ba14d27804"><path d="M 1213.800781 516.878906 L 1289.632812 691.214844 L 1463.96875 767.046875 L 1289.632812 842.878906 L 1213.800781 1017.214844 L 1137.96875 842.878906 L 963.632812 767.046875 L 1137.96875 691.214844 Z M 1213.800781 516.878906 " clip-rule="nonzero"/></clipPath><clipPath id="750391f844"><path d="M 0.632812 0.878906 L 500.96875 0.878906 L 500.96875 501.214844 L 0.632812 501.214844 Z M 0.632812 0.878906 " clip-rule="nonzero"/></clipPath><clipPath id="674c95db1c"><path d="M 250.800781 0.878906 L 326.632812 175.214844 L 500.96875 251.046875 L 326.632812 326.878906 L 250.800781 501.214844 L 174.96875 326.878906 L 0.632812 251.046875 L 174.96875 175.214844 Z M 250.800781 0.878906 " clip-rule="nonzero"/></clipPath><clipPath id="12026ab6c8"><rect x="0" width="501" y="0" height="502"/></clipPath></defs><g transform="matrix(1, 0, 0, 1, 35, 0.000000000000112861)"><g clip-path="url(#dc74e41d75)"><g fill="#6366f1" fill-opacity="1"><g transform="translate(0.280462, 1447.939928)"><g><path d="M 815.140625 23.40625 C 676.035156 23.40625 550.253906 -6.816406 437.796875 -67.265625 C 325.335938 -127.722656 236.929688 -211.578125 172.578125 -318.828125 C 108.222656 -426.085938 76.046875 -547.320312 76.046875 -682.53125 C 76.046875 -817.738281 108.222656 -938.96875 172.578125 -1046.21875 C 236.929688 -1153.476562 325.335938 -1237.332031 437.796875 -1297.78125 C 550.253906 -1358.238281 676.6875 -1388.46875 817.09375 -1388.46875 C 935.394531 -1388.46875 1042.320312 -1367.664062 1137.875 -1326.0625 C 1233.4375 -1284.457031 1313.71875 -1224.65625 1378.71875 -1146.65625 L 1175.90625 -959.453125 C 1083.601562 -1066.054688 969.195312 -1119.359375 832.6875 -1119.359375 C 748.1875 -1119.359375 672.785156 -1100.832031 606.484375 -1063.78125 C 540.179688 -1026.726562 488.503906 -975.046875 451.453125 -908.734375 C 414.398438 -842.429688 395.875 -767.03125 395.875 -682.53125 C 395.875 -598.03125 414.398438 -522.625 451.453125 -456.3125 C 488.503906 -390.007812 540.179688 -338.332031 606.484375 -301.28125 C 672.785156 -264.238281 748.1875 -245.71875 832.6875 -245.71875 C 969.195312 -245.71875 1083.601562 -299.664062 1175.90625 -407.5625 L 1378.71875 -220.359375 C 1313.71875 -141.054688 1233.113281 -80.601562 1136.90625 -39 C 1040.695312 2.601562 933.441406 23.40625 815.140625 23.40625 Z M 815.140625 23.40625 "/></g></g></g></g></g><g clip-path="url(#5700836fe8)"><g clip-path="url(#ba14d27804)"><g transform="matrix(1, 0, 0, 1, 963, 516)"><g clip-path="url(#12026ab6c8)"><g clip-path="url(#750391f844)"><g clip-path="url(#674c95db1c)"><path fill="#6366f1" d="M 0.632812 0.878906 L 500.96875 0.878906 L 500.96875 501.214844 L 0.632812 501.214844 Z M 0.632812 0.878906 " fill-opacity="1" fill-rule="nonzero"/></g></g></g></g></g></g></svg>